<?xml version="1.0" encoding="UTF-8" standalone="no"?>
<!-- Created with Inkscape (http://www.inkscape.org/) -->

<svg
   xmlns:dc="http://purl.org/dc/elements/1.1/"
   xmlns:cc="http://creativecommons.org/ns#"
   xmlns:rdf="http://www.w3.org/1999/02/22-rdf-syntax-ns#"
   xmlns:svg="http://www.w3.org/2000/svg"
   xmlns="http://www.w3.org/2000/svg"
   xmlns:sodipodi="http://sodipodi.sourceforge.net/DTD/sodipodi-0.dtd"
   xmlns:inkscape="http://www.inkscape.org/namespaces/inkscape"
   width="496.1861"
   height="834.39691"
   id="svg2"
   version="1.1"
   inkscape:version="0.47 r22583"
   sodipodi:docname="Novo documento 1">
  <defs
     id="defs4">
    <inkscape:perspective
       sodipodi:type="inkscape:persp3d"
       inkscape:vp_x="0 : 526.18109 : 1"
       inkscape:vp_y="0 : 1000 : 0"
       inkscape:vp_z="744.09448 : 526.18109 : 1"
       inkscape:persp3d-origin="372.04724 : 350.78739 : 1"
       id="perspective10" />
    <inkscape:perspective
       id="perspective2824"
       inkscape:persp3d-origin="0.5 : 0.33333333 : 1"
       inkscape:vp_z="1 : 0.5 : 1"
       inkscape:vp_y="0 : 1000 : 0"
       inkscape:vp_x="0 : 0.5 : 1"
       sodipodi:type="inkscape:persp3d" />
    <inkscape:perspective
       id="perspective3641"
       inkscape:persp3d-origin="0.5 : 0.33333333 : 1"
       inkscape:vp_z="1 : 0.5 : 1"
       inkscape:vp_y="0 : 1000 : 0"
       inkscape:vp_x="0 : 0.5 : 1"
       sodipodi:type="inkscape:persp3d" />
    <inkscape:perspective
       id="perspective3641-7"
       inkscape:persp3d-origin="0.5 : 0.33333333 : 1"
       inkscape:vp_z="1 : 0.5 : 1"
       inkscape:vp_y="0 : 1000 : 0"
       inkscape:vp_x="0 : 0.5 : 1"
       sodipodi:type="inkscape:persp3d" />
    <inkscape:perspective
       id="perspective3641-0"
       inkscape:persp3d-origin="0.5 : 0.33333333 : 1"
       inkscape:vp_z="1 : 0.5 : 1"
       inkscape:vp_y="0 : 1000 : 0"
       inkscape:vp_x="0 : 0.5 : 1"
       sodipodi:type="inkscape:persp3d" />
    <inkscape:perspective
       id="perspective3691"
       inkscape:persp3d-origin="0.5 : 0.33333333 : 1"
       inkscape:vp_z="1 : 0.5 : 1"
       inkscape:vp_y="0 : 1000 : 0"
       inkscape:vp_x="0 : 0.5 : 1"
       sodipodi:type="inkscape:persp3d" />
  </defs>
  <sodipodi:namedview
     id="base"
     pagecolor="#ffffff"
     bordercolor="#666666"
     borderopacity="1.0"
     inkscape:pageopacity="0.0"
     inkscape:pageshadow="2"
     inkscape:zoom="0.35"
     inkscape:cx="677.24137"
     inkscape:cy="345.18038"
     inkscape:document-units="px"
     inkscape:current-layer="layer1"
     showgrid="false"
     inkscape:window-width="1600"
     inkscape:window-height="838"
     inkscape:window-x="-8"
     inkscape:window-y="-8"
     inkscape:window-maximized="1" />
  <metadata
     id="metadata7">
    <rdf:RDF>
      <cc:Work
         rdf:about="">
        <dc:format>image/svg+xml</dc:format>
        <dc:type
           rdf:resource="http://purl.org/dc/dcmitype/StillImage" />
        <dc:title></dc:title>
      </cc:Work>
    </rdf:RDF>
  </metadata>
  <g
     inkscape:label="Camada 1"
     inkscape:groupmode="layer"
     id="layer1"
     transform="translate(-114.74185,-123.21113)">
    <g
       id="g3718">
      <path
         sodipodi:nodetypes="czsszs"
         id="path3619"
         d="m 318.20285,389.59479 c -9.65595,20.46686 26.51699,4.38775 55.08428,105.2826 28.56729,100.89484 11.55519,242.11929 -19.24161,309.50184 -146.13251,319.73397 70.26319,73.7497 69.27591,-145.99529 -0.29676,-66.05075 -20.72759,-172.01938 -49.18202,-213.62434 -28.45443,-41.60497 -49.84545,-68.07561 -55.93656,-55.16481 z"
         style="fill:#4e8400;fill-opacity:1;stroke:none" />
      <g
         transform="matrix(0.79238826,-0.3486051,0.3486051,0.79238826,-1107.1875,655.35754)"
         id="g3711">
        <path
           sodipodi:type="arc"
           style="fill:#dc990a;fill-opacity:1;stroke:none"
           id="path3631-4-4"
           sodipodi:cx="1102.8572"
           sodipodi:cy="583.79077"
           sodipodi:rx="228.57143"
           sodipodi:ry="217.14285"
           d="m 1331.4286,583.79077 c 0,119.92469 -102.3349,217.14285 -228.5714,217.14285 -126.23654,0 -228.57145,-97.21816 -228.57145,-217.14285 0,-119.92468 102.33491,-217.14285 228.57145,-217.14285 126.2365,0 228.5714,97.21817 228.5714,217.14285 z"
           transform="matrix(0.59250843,-0.23233603,0.24456424,0.62369308,957.20206,409.91795)" />
        <path
           sodipodi:type="arc"
           style="fill:#dc990a;fill-opacity:1;stroke:none"
           id="path3631-9"
           sodipodi:cx="1102.8572"
           sodipodi:cy="583.79077"
           sodipodi:rx="228.57143"
           sodipodi:ry="217.14285"
           d="m 1331.4286,583.79077 c 0,119.92469 -102.3349,217.14285 -228.5714,217.14285 -126.23654,0 -228.57145,-97.21816 -228.57145,-217.14285 0,-119.92468 102.33491,-217.14285 228.57145,-217.14285 126.2365,0 228.5714,97.21817 228.5714,217.14285 z"
           transform="matrix(0.59250843,-0.23233603,0.24456424,0.62369308,782.63063,369.06081)" />
        <path
           sodipodi:type="arc"
           style="fill:#dc990a;fill-opacity:1;stroke:none"
           id="path3631"
           sodipodi:cx="1102.8572"
           sodipodi:cy="583.79077"
           sodipodi:rx="228.57143"
           sodipodi:ry="217.14285"
           d="m 1331.4286,583.79077 c 0,119.92469 -102.3349,217.14285 -228.5714,217.14285 -126.23654,0 -228.57145,-97.21816 -228.57145,-217.14285 0,-119.92468 102.33491,-217.14285 228.57145,-217.14285 126.2365,0 228.5714,97.21817 228.5714,217.14285 z"
           transform="matrix(0.59250843,-0.23233603,0.24456424,0.62369308,1046.9163,269.91795)" />
        <path
           sodipodi:type="arc"
           style="fill:#dc990a;fill-opacity:1;stroke:none"
           id="path3631-1"
           sodipodi:cx="1102.8572"
           sodipodi:cy="583.79077"
           sodipodi:rx="228.57143"
           sodipodi:ry="217.14285"
           d="m 1331.4286,583.79077 c 0,119.92469 -102.3349,217.14285 -228.5714,217.14285 -126.23654,0 -228.57145,-97.21816 -228.57145,-217.14285 0,-119.92468 102.33491,-217.14285 228.57145,-217.14285 126.2365,0 228.5714,97.21817 228.5714,217.14285 z"
           transform="matrix(0.59250843,-0.23233603,0.24456424,0.62369308,767.48777,204.20367)" />
        <path
           sodipodi:type="arc"
           style="fill:#dc990a;fill-opacity:1;stroke:none"
           id="path3631-4"
           sodipodi:cx="1102.8572"
           sodipodi:cy="583.79077"
           sodipodi:rx="228.57143"
           sodipodi:ry="217.14285"
           d="m 1331.4286,583.79077 c 0,119.92469 -102.3349,217.14285 -228.5714,217.14285 -126.23654,0 -228.57145,-97.21816 -228.57145,-217.14285 0,-119.92468 102.33491,-217.14285 228.57145,-217.14285 126.2365,0 228.5714,97.21817 228.5714,217.14285 z"
           transform="matrix(0.59250843,-0.23233603,0.24456424,0.62369308,925.77349,137.06081)" />
      </g>
      <path
         sodipodi:nodetypes="csssssssssc"
         id="path2838"
         d="m 512.32567,512.21387 c -105.65965,91.89038 -73.20172,-68.32846 -129.14293,-58.76189 -55.9412,9.56655 31.57433,169.07848 -102.27725,98.33728 -121.57127,-64.25102 42.36365,-90.73363 15.97854,-140.98065 -26.38513,-50.24702 -145.89023,87.91585 -125.12973,-66.88355 19.11742,-142.54783 99.3839,12.25199 139.0182,-28.36894 39.6343,-40.62092 -145.29759,-106.26404 24.94283,-139.67359 133.38918,-26.17752 19.05897,98.30578 69.93944,123.44768 50.88047,25.1419 59.92611,-148.28296 140.54524,-19.43948 64.43268,102.9747 -87.6048,48.50433 -95.79325,104.6638 -8.18844,56.15948 155.72367,33.18308 61.91891,127.65934 z"
         style="fill:#ffe700;fill-opacity:1;stroke:#ffffc8;stroke-width:6;stroke-miterlimit:4;stroke-opacity:1;stroke-dasharray:none;stroke-dashoffset:0" />
      <path
         transform="matrix(0.92314387,0.38445467,-0.38445467,0.92314387,59.399964,11.148473)"
         d="m 472.7514,210.90511 c 0,25.10513 -21.25625,45.45686 -47.47717,45.45686 -26.22092,0 -47.47717,-20.35173 -47.47717,-45.45686 0,-25.10514 21.25625,-45.45687 47.47717,-45.45687 26.22092,0 47.47717,20.35173 47.47717,45.45687 z"
         sodipodi:ry="45.456863"
         sodipodi:rx="47.477169"
         sodipodi:cy="210.90511"
         sodipodi:cx="425.27423"
         id="path3613"
         style="fill:#ffd399;fill-opacity:1;stroke:#ffffff;stroke-width:6;stroke-miterlimit:4;stroke-opacity:1;stroke-dasharray:none;stroke-dashoffset:0"
         sodipodi:type="arc" />
    </g>
  </g>
</svg>
