<?xml version="1.0" encoding="utf-8"?>
<!-- Generator: Adobe Illustrator 16.0.0, SVG Export Plug-In . SVG Version: 6.00 Build 0)  -->
<!DOCTYPE svg PUBLIC "-//W3C//DTD SVG 1.1//EN" "http://www.w3.org/Graphics/SVG/1.1/DTD/svg11.dtd">
<svg version="1.1" id="Layer_1" xmlns="http://www.w3.org/2000/svg" xmlns:xlink="http://www.w3.org/1999/xlink" x="0px" y="0px"
	 width="864px" height="2016px" viewBox="0 0 864 2016" enable-background="new 0 0 864 2016" xml:space="preserve">
<path fill="none" stroke="#000000" stroke-miterlimit="10" d="M62.517,1779.493l80.749-2.237l141.032-1.011l191.536,6.758
	l50.896,3.788l115.584,9.684l69.364,5.812l2.957-34.235l7.574-87.665l30.424-352.012l25.945-300.1l12.698-144.239l11.703-138.026
	l-1.469,17.004l39.482-456.734l8.938-103.428l4.406-50.985l-73.289-8.578l-158.854-27.014l-91.591-9.014l-59.757-7.339
	l-128.562,10.194l-20.217,26.89l-15.389,43.521l-21.43,53.734l-28.302,58.8l-54.805,90.583l-37.684,50.177l-44.013,49.774
	l-42.503,41.041l-58.952,47.99l-7.945,107.131L9.65,787.373l0.872,120.943l2.247,132.123l3.539,100.37l7.458,133.312l8.925,125.524
	L62.517,1779.493L62.517,1779.493L62.517,1779.493z"/>
</svg>
