<?xml version="1.0" encoding="utf-8"?>
<!-- Generator: Adobe Illustrator 16.0.0, SVG Export Plug-In . SVG Version: 6.00 Build 0)  -->
<!DOCTYPE svg PUBLIC "-//W3C//DTD SVG 1.1//EN" "http://www.w3.org/Graphics/SVG/1.1/DTD/svg11.dtd">
<svg version="1.1" id="Layer_1" xmlns="http://www.w3.org/2000/svg" xmlns:xlink="http://www.w3.org/1999/xlink" x="0px" y="0px"
	 width="1152px" height="2016px" viewBox="0 0 1152 2016" enable-background="new 0 0 1152 2016" xml:space="preserve">
<path fill="none" stroke="#000000" stroke-miterlimit="10" d="M955.124,1832.237l4.652-137.833l4.633-119.711l4.438-114.31
	l5.009-147.138l2.78-113.865l1.319-108.055l-1.341-164.975l-5.136-138.523l-7.575-113.67l-21.115-192.091l-18.874-117.101
	l-23.99-116.494l-22.271-84.955l-34.787-9.901l-93.328,10.547l-99.251,2.874l-38.846-0.783L576,163.103l-44.548-0.431l-51.758,7.413
	l-42.788,6.232l-74.804,9.742l-99.352-0.749l-5.029,110.953l-3.311,168.003l2.886,248.865l15.675,366.159l10.658,186.271
	l6.374,108.197l-115.429,7.291l6.99,144.231l11.349,239.975l2.547,53.938l3.913,48.369l22.372-1.125l98.506-4.922l66.645-3.217
	l104.554-4.813l161.825-7.247l149.243-6.852L955.124,1832.237L955.124,1832.237z"/>
</svg>
