<?xml version="1.0" encoding="UTF-8" standalone="no"?>
<!-- Created with Inkscape (http://www.inkscape.org/) -->

<svg
   xmlns:dc="http://purl.org/dc/elements/1.1/"
   xmlns:cc="http://creativecommons.org/ns#"
   xmlns:rdf="http://www.w3.org/1999/02/22-rdf-syntax-ns#"
   xmlns:svg="http://www.w3.org/2000/svg"
   xmlns="http://www.w3.org/2000/svg"
   version="1.1"
   width="173.31442"
   height="141.37488"
   id="svg2">
  <defs
     id="defs4" />
  <metadata
     id="metadata7">
    <rdf:RDF>
      <cc:Work
         rdf:about="">
        <dc:format>image/svg+xml</dc:format>
        <dc:type
           rdf:resource="http://purl.org/dc/dcmitype/StillImage" />
        <dc:title></dc:title>
      </cc:Work>
    </rdf:RDF>
  </metadata>
  <g
     transform="translate(-210.13389,-293.22596)"
     id="layer1">
    <g
       id="g4512">
      <path
         d="m 381.57332,295.10101 c -1.77083,18.31369 -1.57495,36.92457 -4.94206,54.98888 -3.13334,16.81013 -6.78834,34.09466 -15.43986,49.05285 -6.09021,10.52978 -14.15496,20.46144 -24.71902,26.59557 -23.91581,13.887 -52.12312,5.83518 -70.5845,-13.24095 -13.90179,-14.36469 -19.14912,-31.90327 -15.11493,-50.89116 3.45104,-16.24315 17.32964,-28.33134 30.87781,-37.24506 28.59507,-19.04476 64.40129,-24.0851 97.80074,-28.92005 l 1.06118,-0.16839 1.06063,-0.17174 0,0 1e-5,6e-5 z"
         id="path3765"
         style="fill:#5dc328;fill-opacity:1;stroke:#167d16;stroke-width:3.75;stroke-miterlimit:4;stroke-opacity:1;stroke-dasharray:none" />
      <path
         d="m 371.18253,306.95656 c -92.91724,100.2818 -97.14505,104.0402 -97.14505,104.0402"
         id="path2839"
         style="fill:none;stroke:#167d16;stroke-width:3.75;stroke-linecap:butt;stroke-linejoin:miter;stroke-miterlimit:4;stroke-opacity:1;stroke-dasharray:none" />
      <path
         d="m 309.42168,331.47507 c 5.14137,22.57385 19.83856,34.54366 42.29567,37.90234"
         id="path3885"
         style="fill:none;stroke:#167d16;stroke-width:3.75;stroke-linecap:butt;stroke-linejoin:miter;stroke-miterlimit:4;stroke-opacity:1;stroke-dasharray:none" />
      <path
         d="m 285.55304,350.22125 c 5.99851,26.33722 23.14591,40.30254 49.34692,44.22117"
         id="path3885-8"
         style="fill:none;stroke:#167d16;stroke-width:3.75;stroke-linecap:butt;stroke-linejoin:miter;stroke-miterlimit:4;stroke-opacity:1;stroke-dasharray:none" />
      <path
         d="m 269.27728,374.70305 c 5.14137,22.57386 19.83855,34.54365 42.29566,37.90234"
         id="path3885-2"
         style="fill:none;stroke:#167d16;stroke-width:3.75;stroke-linecap:butt;stroke-linejoin:miter;stroke-miterlimit:4;stroke-opacity:1;stroke-dasharray:none" />
      <path
         d="m 333.99931,317.81334 c 3.56364,15.64656 13.75067,23.94316 29.3163,26.27115"
         id="path3885-7"
         style="fill:none;stroke:#167d16;stroke-width:3.75;stroke-linecap:butt;stroke-linejoin:miter;stroke-miterlimit:4;stroke-opacity:1;stroke-dasharray:none" />
      <path
         d="m 212.00889,419.11884 c 19.72379,12.12373 38.55928,10.00069 56.67348,-3.6916"
         id="path3885-2-9"
         style="fill:none;stroke:#167d16;stroke-width:3.75;stroke-linecap:butt;stroke-linejoin:miter;stroke-miterlimit:4;stroke-opacity:1;stroke-dasharray:none" />
    </g>
  </g>
</svg>
