<?xml version="1.0" encoding="UTF-8" standalone="no"?>
<!-- Created with Inkscape (http://www.inkscape.org/) -->

<svg
   xmlns:dc="http://purl.org/dc/elements/1.1/"
   xmlns:cc="http://creativecommons.org/ns#"
   xmlns:rdf="http://www.w3.org/1999/02/22-rdf-syntax-ns#"
   xmlns:svg="http://www.w3.org/2000/svg"
   xmlns="http://www.w3.org/2000/svg"
   xmlns:sodipodi="http://sodipodi.sourceforge.net/DTD/sodipodi-0.dtd"
   xmlns:inkscape="http://www.inkscape.org/namespaces/inkscape"
   width="744.09448819"
   height="1052.3622047"
   id="svg2"
   version="1.1"
   inkscape:version="0.48.2 r9819"
   sodipodi:docname="New document 1">
  <defs
     id="defs4" />
  <sodipodi:namedview
     id="base"
     pagecolor="#ffffff"
     bordercolor="#666666"
     borderopacity="1.0"
     inkscape:pageopacity="0.0"
     inkscape:pageshadow="2"
     inkscape:zoom="0.35"
     inkscape:cx="375"
     inkscape:cy="520"
     inkscape:document-units="px"
     inkscape:current-layer="layer1"
     showgrid="false"
     inkscape:window-width="751"
     inkscape:window-height="637"
     inkscape:window-x="0"
     inkscape:window-y="0"
     inkscape:window-maximized="0" />
  <metadata
     id="metadata7">
    <rdf:RDF>
      <cc:Work
         rdf:about="">
        <dc:format>image/svg+xml</dc:format>
        <dc:type
           rdf:resource="http://purl.org/dc/dcmitype/StillImage" />
        <dc:title></dc:title>
      </cc:Work>
    </rdf:RDF>
  </metadata>
  <g
     inkscape:label="Layer 1"
     inkscape:groupmode="layer"
     id="layer1">
    <path
       sodipodi:type="spiral"
       style="fill:none;stroke:#000000;stroke-width:1px;stroke-linecap:butt;stroke-linejoin:miter;stroke-opacity:1"
       id="path2985"
       sodipodi:cx="122.85714"
       sodipodi:cy="243.79076"
       sodipodi:expansion="1"
       sodipodi:revolution="3"
       sodipodi:radius="160.22943"
       sodipodi:argument="-20.473873"
       sodipodi:t0="0"
       d="m 122.85714,243.79076 c -0.42976,-8.02215 10.60166,-4.53716 13.33333,-0.7143 7.40266,10.35972 -1.75055,23.53929 -11.90474,27.38096 -18.16348,6.87185 -36.745547,-7.10401 -41.42859,-24.52378 -6.872554,-25.56422 12.472186,-50.18297 37.14282,-55.47622 32.88208,-7.05506 63.70928,17.838 69.52385,49.76187 7.31703,40.17292 -23.20083,77.27961 -62.38091,83.57147 -47.452314,7.62028 -90.875073,-28.56162 -97.619093,-74.99995 -7.947594,-54.72596 33.921058,-104.48626 87.618983,-111.66672 61.99637,-8.29013 118.10793,39.27961 125.71435,100.23802 8.64289,69.26482 -44.63756,131.73696 -112.85706,139.76198 C 53.468112,386.12694 -15.371262,327.12901 -23.809526,251.64799 -33.177598,167.84975 31.542758,92.638252 114.28561,83.790758"
       transform="translate(237.14286,202.85714)" />
  </g>
</svg>
